<svg width="148" height="30" viewBox="0 0 148 30" fill="none" xmlns="http://www.w3.org/2000/svg">
<path d="M0.56 22L1.36 0.24H4.336L11.024 15.568L17.744 0.24H20.72L21.52 22H18.96L18.32 4.976L12.368 18.608H9.712L3.728 4.976L3.12 22H0.56ZM31.8058 22.448C29.9711 22.448 28.4671 21.7547 27.2938 20.368C26.1204 18.9813 25.5338 16.9867 25.5338 14.384C25.5338 11.76 26.2698 9.63733 27.7418 8.016C29.2351 6.37333 31.0804 5.552 33.2778 5.552C35.4964 5.552 37.4911 6.17067 39.2618 7.408V18.8L39.5818 22L37.4698 22.16L36.9258 19.28C35.7311 21.392 34.0244 22.448 31.8058 22.448ZM27.9658 14.32C27.9658 16.24 28.3711 17.712 29.1818 18.736C29.9924 19.76 31.0271 20.272 32.2858 20.272C33.5658 20.272 34.6431 19.6427 35.5178 18.384C36.3924 17.104 36.8298 15.3013 36.8298 12.976V8.528C35.7631 7.99467 34.6218 7.728 33.4058 7.728C31.8271 7.728 30.5258 8.34667 29.5018 9.584C28.4778 10.8 27.9658 12.3787 27.9658 14.32ZM52.7163 5.552C56.2149 5.552 57.9643 7.792 57.9643 12.272V22H55.5323V12.272C55.5323 9.24267 54.4549 7.728 52.3003 7.728C51.0629 7.728 49.9323 8.368 48.9083 9.648C47.9056 10.928 47.3723 12.688 47.3083 14.928V22H44.8763V9.2L44.5563 6L46.6683 5.84L47.2763 9.136C47.9376 7.984 48.7589 7.09867 49.7403 6.48C50.7216 5.86133 51.7136 5.552 52.7163 5.552ZM75.543 20.912C75.543 23.472 74.7963 25.5627 73.303 27.184C71.831 28.8267 69.9857 29.648 67.767 29.648C65.5697 29.648 63.5857 29.0293 61.815 27.792L63.031 25.904C63.543 26.3307 64.2257 26.6827 65.079 26.96C65.9323 27.2373 66.7963 27.376 67.671 27.376C69.2497 27.376 70.551 26.768 71.575 25.552C72.599 24.336 73.111 22.7787 73.111 20.88V19.376C71.9163 21.424 70.2417 22.448 68.087 22.448C66.2523 22.448 64.7483 21.7547 63.575 20.368C62.4017 18.9813 61.815 16.9867 61.815 14.384C61.815 11.76 62.551 9.63733 64.023 8.016C65.5163 6.37333 67.3617 5.552 69.559 5.552C71.7777 5.552 73.7723 6.17067 75.543 7.408V20.912ZM64.247 14.32C64.247 16.24 64.6523 17.712 65.463 18.736C66.2737 19.76 67.3083 20.272 68.567 20.272C69.847 20.272 70.9243 19.632 71.799 18.352C72.6737 17.072 73.111 15.248 73.111 12.88V8.528C72.0443 7.99467 70.903 7.728 69.687 7.728C68.1083 7.728 66.807 8.34667 65.783 9.584C64.759 10.8 64.247 12.3787 64.247 14.32ZM81.61 20.112C80.4367 18.5333 79.85 16.496 79.85 14C79.85 11.504 80.4367 9.47733 81.61 7.92C82.7833 6.34133 84.5327 5.552 86.858 5.552C89.2047 5.552 90.9753 6.34133 92.17 7.92C93.3647 9.47733 93.962 11.504 93.962 14C93.962 16.496 93.3647 18.5333 92.17 20.112C90.9753 21.6693 89.2047 22.448 86.858 22.448C84.5327 22.448 82.7833 21.6693 81.61 20.112ZM83.434 9.488C82.666 10.64 82.282 12.144 82.282 14C82.282 15.856 82.666 17.3707 83.434 18.544C84.202 19.696 85.354 20.272 86.89 20.272C88.426 20.272 89.578 19.696 90.346 18.544C91.1353 17.3707 91.53 15.856 91.53 14C91.53 12.144 91.1353 10.64 90.346 9.488C89.578 8.31467 88.426 7.728 86.89 7.728C85.354 7.728 84.202 8.31467 83.434 9.488ZM106.027 0.24L113.355 22H110.699L108.587 15.6H100.331L98.2185 22H95.5625L102.891 0.24H106.027ZM104.459 3.056L101.067 13.296H107.819L104.459 3.056ZM123.52 5.552C125.354 5.552 126.858 6.24533 128.032 7.632C129.205 9.01867 129.792 11.024 129.792 13.648C129.792 16.2507 129.045 18.3733 127.552 20.016C126.08 21.6373 124.202 22.448 121.92 22.448C120.789 22.448 119.648 22.2453 118.496 21.84V29.2H116.064V9.2L115.744 6L117.856 5.84L118.4 8.784C119.594 6.62933 121.301 5.552 123.52 5.552ZM127.36 13.712C127.36 11.7707 126.954 10.288 126.144 9.264C125.333 8.24 124.298 7.728 123.04 7.728C121.802 7.728 120.746 8.336 119.872 9.552C118.997 10.768 118.538 12.5067 118.496 14.768V19.376C119.605 19.9733 120.746 20.272 121.92 20.272C123.498 20.272 124.8 19.664 125.824 18.448C126.848 17.2107 127.36 15.632 127.36 13.712ZM141.582 5.552C143.417 5.552 144.921 6.24533 146.094 7.632C147.268 9.01867 147.854 11.024 147.854 13.648C147.854 16.2507 147.108 18.3733 145.614 20.016C144.142 21.6373 142.265 22.448 139.982 22.448C138.852 22.448 137.71 22.2453 136.558 21.84V29.2H134.126V9.2L133.806 6L135.918 5.84L136.462 8.784C137.657 6.62933 139.364 5.552 141.582 5.552ZM145.422 13.712C145.422 11.7707 145.017 10.288 144.206 9.264C143.396 8.24 142.361 7.728 141.102 7.728C139.865 7.728 138.809 8.336 137.934 9.552C137.06 10.768 136.601 12.5067 136.558 14.768V19.376C137.668 19.9733 138.809 20.272 139.982 20.272C141.561 20.272 142.862 19.664 143.886 18.448C144.91 17.2107 145.422 15.632 145.422 13.712Z" fill="black"/>
</svg>
